  0
SECTION
  2
HEADER
  9
$ACADVER
  1
AC1006
  9
$EXTMIN
 10
0.000000
 20
0.000000
 30
0.000000
  9
$EXTMAX
 10
60.000000
 20
54.000000
 30
0.000000
  0
ENDSEC
  0
SECTION
  2
ENTITIES
  0
POLYLINE
  8
0
 66
1
 70
1
  0
VERTEX
  8
0
 10
0.000000
 20
27.500000
 42
0.000000
  0
VERTEX
  8
0
 10
0.000000
 20
1.000000
 42
0.000000
  0
VERTEX
  8
0
 10
30.000000
 20
1.000000
 42
0.000000
  0
VERTEX
  8
0
 10
60.000000
 20
1.000000
 42
0.000000
  0
VERTEX
  8
0
 10
60.000000
 20
27.500000
 42
0.000000
  0
VERTEX
  8
0
 10
60.000000
 20
54.000000
 42
0.000000
  0
VERTEX
  8
0
 10
30.000000
 20
54.000000
 42
0.000000
  0
VERTEX
  8
0
 10
0.000000
 20
54.000000
 42
0.000000
  0
SEQEND
  0
POLYLINE
  8
0
 66
1
 70
1
  0
VERTEX
  8
0
 10
35.000000
 20
41.000000
 42
-0.339565
  0
VERTEX
  8
0
 10
34.696775
 20
40.604992
 42
-0.024068
  0
VERTEX
  8
0
 10
33.250000
 20
40.291667
 42
-0.025878
  0
VERTEX
  8
0
 10
31.316313
 20
40.071434
 42
-0.015416
  0
VERTEX
  8
0
 10
29.000000
 20
40.000000
 42
-0.015416
  0
VERTEX
  8
0
 10
26.683687
 20
40.071434
 42
-0.025878
  0
VERTEX
  8
0
 10
24.750000
 20
40.291667
 42
-0.024068
  0
VERTEX
  8
0
 10
23.303225
 20
40.604992
 42
-0.339565
  0
VERTEX
  8
0
 10
23.000000
 20
41.000000
 42
-0.339565
  0
VERTEX
  8
0
 10
23.303225
 20
41.395008
 42
-0.024068
  0
VERTEX
  8
0
 10
24.750000
 20
41.708333
 42
-0.025878
  0
VERTEX
  8
0
 10
26.683687
 20
41.928566
 42
-0.015416
  0
VERTEX
  8
0
 10
29.000000
 20
42.000000
 42
-0.015416
  0
VERTEX
  8
0
 10
31.316313
 20
41.928566
 42
-0.025878
  0
VERTEX
  8
0
 10
33.250000
 20
41.708333
 42
-0.024068
  0
VERTEX
  8
0
 10
34.696775
 20
41.395008
 42
-0.339565
  0
SEQEND
  0
POLYLINE
  8
0
 66
1
 70
1
  0
VERTEX
  8
0
 10
41.723924
 20
26.892007
 42
0.000000
  0
VERTEX
  8
0
 10
41.170071
 20
20.784014
 42
0.000000
  0
VERTEX
  8
0
 10
44.053785
 20
21.360757
 42
-0.005101
  0
VERTEX
  8
0
 10
45.914110
 20
21.713125
 42
-0.242907
  0
VERTEX
  8
0
 10
46.268131
 20
21.603773
 42
-0.406412
  0
VERTEX
  8
0
 10
46.274663
 20
21.314517
 42
-0.009106
  0
VERTEX
  8
0
 10
45.217059
 20
20.218750
 42
-0.143723
  0
VERTEX
  8
0
 10
42.948674
 20
18.981249
 42
-0.031265
  0
VERTEX
  8
0
 10
38.495378
 20
18.301758
 42
-0.027861
  0
VERTEX
  8
0
 10
34.067894
 20
18.154723
 42
-0.253934
  0
VERTEX
  8
0
 10
32.450117
 20
19.080712
 42
-0.209825
  0
VERTEX
  8
0
 10
32.400768
 20
19.431090
 42
-0.271362
  0
VERTEX
  8
0
 10
32.629998
 20
19.652087
 42
-0.095393
  0
VERTEX
  8
0
 10
33.228017
 20
19.680179
 42
-0.025557
  0
VERTEX
  8
0
 10
34.166211
 20
19.495490
 42
0.113462
  0
VERTEX
  8
0
 10
36.813560
 20
19.443820
 42
0.175348
  0
VERTEX
  8
0
 10
38.739451
 20
20.634180
 42
0.120514
  0
VERTEX
  8
0
 10
39.922632
 20
23.213029
 42
0.041608
  0
VERTEX
  8
0
 10
40.364023
 20
27.318168
 42
-0.014699
  0
VERTEX
  8
0
 10
40.480246
 20
29.495055
 42
-0.023949
  0
VERTEX
  8
0
 10
40.721168
 20
31.328957
 42
-0.020666
  0
VERTEX
  8
0
 10
41.032967
 20
32.724349
 42
-0.339070
  0
VERTEX
  8
0
 10
41.388889
 20
32.998208
 42
-0.376814
  0
VERTEX
  8
0
 10
41.713054
 20
32.714635
 42
-0.019142
  0
VERTEX
  8
0
 10
41.853972
 20
31.205251
 42
-0.022748
  0
VERTEX
  8
0
 10
41.872354
 20
29.233834
 42
-0.013567
  0
SEQEND
  0
POLYLINE
  8
0
 66
1
 70
1
  0
VERTEX
  8
0
 10
50.689326
 20
27.250000
 42
-0.161593
  0
VERTEX
  8
0
 10
50.521012
 20
26.990860
 42
-0.542911
  0
VERTEX
  8
0
 10
50.366341
 20
27.042188
 42
-0.052887
  0
VERTEX
  8
0
 10
50.259713
 20
27.748017
 42
-0.011065
  0
VERTEX
  8
0
 10
50.232003
 20
29.000000
 42
-0.011065
  0
VERTEX
  8
0
 10
50.259713
 20
30.251983
 42
-0.052887
  0
VERTEX
  8
0
 10
50.366341
 20
30.957812
 42
-0.542911
  0
VERTEX
  8
0
 10
50.521012
 20
31.009140
 42
-0.161593
  0
VERTEX
  8
0
 10
50.689326
 20
30.750000
 42
-0.039571
  0
VERTEX
  8
0
 10
50.831531
 20
29.952734
 42
-0.024357
  0
VERTEX
  8
0
 10
50.877971
 20
29.000000
 42
-0.024357
  0
VERTEX
  8
0
 10
50.831531
 20
28.047266
 42
-0.039571
  0
SEQEND
  0
POLYLINE
  8
0
 66
1
 70
1
  0
VERTEX
  8
0
 10
10.602679
 20
23.254464
 42
0.067616
  0
VERTEX
  8
0
 10
11.305834
 20
22.719510
 42
0.026010
  0
VERTEX
  8
0
 10
12.405859
 20
22.169922
 42
0.025181
  0
VERTEX
  8
0
 10
13.677213
 20
21.689960
 42
0.028315
  0
VERTEX
  8
0
 10
14.941964
 20
21.361607
 42
-0.065369
  0
VERTEX
  8
0
 10
16.934457
 20
20.683692
 42
-0.200989
  0
VERTEX
  8
0
 10
17.850152
 20
19.630342
 42
-0.208751
  0
VERTEX
  8
0
 10
17.723703
 20
18.269930
 42
-0.070397
  0
VERTEX
  8
0
 10
16.500000
 20
16.642857
 42
0.054772
  0
VERTEX
  8
0
 10
15.461398
 20
15.347856
 42
0.119383
  0
VERTEX
  8
0
 10
15.052735
 20
14.150430
 42
0.221626
  0
VERTEX
  8
0
 10
15.342740
 20
13.343333
 42
0.200016
  0
VERTEX
  8
0
 10
16.166667
 20
13.000000
 42
-0.059575
  0
VERTEX
  8
0
 10
16.566759
 20
12.952159
 42
-0.178606
  0
VERTEX
  8
0
 10
16.791690
 20
12.801065
 42
-0.250575
  0
VERTEX
  8
0
 10
16.821597
 20
12.580488
 42
-0.107695
  0
VERTEX
  8
0
 10
16.656107
 20
12.322773
 42
-0.377893
  0
VERTEX
  8
0
 10
15.651928
 20
12.259638
 42
-0.049526
  0
VERTEX
  8
0
 10
13.966400
 20
13.857773
 42
-0.046597
  0
VERTEX
  8
0
 10
12.357630
 20
16.111676
 42
-0.070335
  0
VERTEX
  8
0
 10
11.450194
 20
18.342420
 42
0.043225
  0
VERTEX
  8
0
 10
11.104604
 20
19.343847
 42
0.042610
  0
VERTEX
  8
0
 10
10.590655
 20
20.276042
 42
0.045962
  0
VERTEX
  8
0
 10
9.995582
 20
21.010574
 42
0.108330
  0
VERTEX
  8
0
 10
9.409753
 20
21.396258
 42
-0.144136
  0
VERTEX
  8
0
 10
8.874794
 20
21.805227
 42
-0.062782
  0
VERTEX
  8
0
 10
8.436905
 20
22.594748
 42
-0.054712
  0
VERTEX
  8
0
 10
8.153083
 20
23.613629
 42
-0.047720
  0
VERTEX
  8
0
 10
8.078947
 20
24.718615
 42
-0.016930
  0
VERTEX
  8
0
 10
8.143835
 20
25.759927
 42
-0.093866
  0
VERTEX
  8
0
 10
8.299888
 20
26.296008
 42
-0.481240
  0
VERTEX
  8
0
 10
8.507799
 20
26.338865
 42
-0.126414
  0
VERTEX
  8
0
 10
8.739662
 20
26.017857
 42
0.035444
  0
VERTEX
  8
0
 10
9.054395
 20
25.357730
 42
0.019360
  0
VERTEX
  8
0
 10
9.526902
 20
24.594727
 42
0.019206
  0
VERTEX
  8
0
 10
10.069530
 20
23.852982
 42
0.028858
  0
SEQEND
  0
POLYLINE
  8
0
 66
1
 70
1
  0
VERTEX
  8
0
 10
44.000000
 20
14.500000
 42
-0.064853
  0
VERTEX
  8
0
 10
43.925306
 20
13.926543
 42
-0.082425
  0
VERTEX
  8
0
 10
43.706250
 20
13.440625
 42
-0.098894
  0
VERTEX
  8
0
 10
43.381354
 20
13.115568
 42
-0.148195
  0
VERTEX
  8
0
 10
43.000000
 20
13.000000
 42
-0.148195
  0
VERTEX
  8
0
 10
42.618646
 20
13.115568
 42
-0.098894
  0
VERTEX
  8
0
 10
42.293750
 20
13.440625
 42
-0.082425
  0
VERTEX
  8
0
 10
42.074694
 20
13.926543
 42
-0.064853
  0
VERTEX
  8
0
 10
42.000000
 20
14.500000
 42
-0.064853
  0
VERTEX
  8
0
 10
42.074694
 20
15.073457
 42
-0.082425
  0
VERTEX
  8
0
 10
42.293750
 20
15.559375
 42
-0.098894
  0
VERTEX
  8
0
 10
42.618646
 20
15.884432
 42
-0.148195
  0
VERTEX
  8
0
 10
43.000000
 20
16.000000
 42
-0.148195
  0
VERTEX
  8
0
 10
43.381354
 20
15.884432
 42
-0.098894
  0
VERTEX
  8
0
 10
43.706250
 20
15.559375
 42
-0.082425
  0
VERTEX
  8
0
 10
43.925306
 20
15.073457
 42
-0.064853
  0
SEQEND
  0
ENDSEC
  0
EOF
